{
  "accessors": [
    {
      "bufferView": 2,
      "componentType": 5126,
      "count": 504,
      "max": [
        0.12407899647951126,
        0.10399799793958664,
        -0.23514899611473083
      ],
      "min": [
        -0.11158200353384018,
        -0.166376993060112,
        -0.2767150104045868
      ],
      "type": "VEC3"
    },
    {
      "bufferView": 2,
      "byteOffset": 6048,
      "componentType": 5126,
      "count": 504,
      "max": [
        0.40598729252815247,
        0.36150771379470825,
        0.9752647876739502
      ],
      "min": [
        -0.4068763256072998,
        -0.36144688725471497,
        0.9126411080360413
      ],
      "type": "VEC3"
    },
    {
      "bufferView": 1,
      "componentType": 5126,
      "count": 504,
      "max": [
        0.9986019730567932,
        1.0
      ],
      "min": [
        0.0013980859657749534,
        0.005584537051618099
      ],
      "type": "VEC2"
    },
    {
      "bufferView": 0,
      "componentType": 5125,
      "count": 504,
      "type": "SCALAR"
    },
    {
      "bufferView": 2,
      "byteOffset": 12096,
      "componentType": 5126,
      "count": 12972,
      "max": [
        0.5,
        0.5,
        0.4470660090446472
      ],
      "min": [
        -0.5,
        -0.47361698746681213,
        -0.31207001209259033
      ],
      "type": "VEC3"
    },
    {
      "bufferView": 2,
      "byteOffset": 167760,
      "componentType": 5126,
      "count": 12972,
      "max": [
        0.999587893486023,
        0.9998635053634644,
        0.9999201893806458
      ],
      "min": [
        -0.9997410774230957,
        -0.9998701214790344,
        -0.9981387257575989
      ],
      "type": "VEC3"
    },
    {
      "bufferView": 1,
      "byteOffset": 4032,
      "componentType": 5126,
      "count": 12972,
      "max": [
        0.933430016040802,
        0.9055290222167969
      ],
      "min": [
        0.05515288934111595,
        0.12009699642658234
      ],
      "type": "VEC2"
    },
    {
      "bufferView": 0,
      "byteOffset": 2016,
      "componentType": 5125,
      "count": 12972,
      "type": "SCALAR"
    },
    {
      "bufferView": 2,
      "byteOffset": 323424,
      "componentType": 5126,
      "count": 774,
      "max": [
        0.16904689371585846,
        0.15565000474452972,
        -0.2520099878311157
      ],
      "min": [
        -0.15677900612354279,
        -0.2184710055589676,
        -0.5
      ],
      "type": "VEC3"
    },
    {
      "bufferView": 2,
      "byteOffset": 332712,
      "componentType": 5126,
      "count": 774,
      "max": [
        0.9919140934944153,
        0.9993994832038879,
        0.9649221897125244
      ],
      "min": [
        -0.9999856948852539,
        -0.9993411898612976,
        -0.9999296069145203
      ],
      "type": "VEC3"
    },
    {
      "bufferView": 1,
      "byteOffset": 107808,
      "componentType": 5126,
      "count": 774,
      "max": [
        0.9751690030097961,
        0.9560009837150574
      ],
      "min": [
        0.027547059580683708,
        0.08292639255523682
      ],
      "type": "VEC2"
    },
    {
      "bufferView": 0,
      "byteOffset": 53904,
      "componentType": 5125,
      "count": 4311,
      "type": "SCALAR"
    },
    {
      "bufferView": 2,
      "byteOffset": 342000,
      "componentType": 5126,
      "count": 576,
      "max": [
        0.09189748018980026,
        -0.09194319695234299,
        0.5
      ],
      "min": [
        -0.3218970000743866,
        -0.3196839988231659,
        0.10431800037622452
      ],
      "type": "VEC3"
    },
    {
      "bufferView": 2,
      "byteOffset": 348912,
      "componentType": 5126,
      "count": 576,
      "max": [
        0.9998309016227722,
        0.9996914863586426,
        0.9972646832466125
      ],
      "min": [
        -0.9995018243789673,
        -0.9924420118331909,
        -0.998600423336029
      ],
      "type": "VEC3"
    },
    {
      "bufferView": 1,
      "byteOffset": 114000,
      "componentType": 5126,
      "count": 576,
      "max": [
        0.984857976436615,
        0.9686160087585449
      ],
      "min": [
        0.005533813964575529,
        0.01115345023572445
      ],
      "type": "VEC2"
    },
    {
      "bufferView": 0,
      "byteOffset": 71148,
      "componentType": 5125,
      "count": 2832,
      "type": "SCALAR"
    },
    {
      "bufferView": 2,
      "byteOffset": 355824,
      "componentType": 5126,
      "count": 116,
      "max": [
        0.014839350245893002,
        -0.10445600003004074,
        0.4577319920063019
      ],
      "min": [
        -0.2620199918746948,
        -0.18497799336910248,
        0.13624000549316406
      ],
      "type": "VEC3"
    },
    {
      "bufferView": 2,
      "byteOffset": 357216,
      "componentType": 5126,
      "count": 116,
      "max": [
        0.9518076777458191,
        0.8451120257377625,
        0.9647909998893738
      ],
      "min": [
        -0.9998220801353455,
        -0.9963536262512207,
        -0.7148865461349487
      ],
      "type": "VEC3"
    },
    {
      "bufferView": 1,
      "byteOffset": 118608,
      "componentType": 5126,
      "count": 116,
      "max": [
        0.9851070046424866,
        0.8883280158042908
      ],
      "min": [
        0.0,
        0.0
      ],
      "type": "VEC2"
    },
    {
      "bufferView": 0,
      "byteOffset": 82476,
      "componentType": 5125,
      "count": 324,
      "type": "SCALAR"
    },
    {
      "bufferView": 2,
      "byteOffset": 358608,
      "componentType": 5126,
      "count": 2982,
      "max": [
        0.11576300114393234,
        0.1203249990940094,
        0.33384400606155396
      ],
      "min": [
        -0.21081100404262543,
        -0.18366500735282898,
        -0.4004809856414795
      ],
      "type": "VEC3"
    },
    {
      "bufferView": 2,
      "byteOffset": 394392,
      "componentType": 5126,
      "count": 2982,
      "max": [
        0.9995146989822388,
        0.9999806880950928,
        0.9990512728691101
      ],
      "min": [
        -0.9997627139091492,
        -0.9999138712882996,
        -0.995625376701355
      ],
      "type": "VEC3"
    },
    {
      "bufferView": 1,
      "byteOffset": 119536,
      "componentType": 5126,
      "count": 2982,
      "max": [
        1.0,
        0.9942119717597961
      ],
      "min": [
        0.0,
        0.0
      ],
      "type": "VEC2"
    },
    {
      "bufferView": 0,
      "byteOffset": 83772,
      "componentType": 5125,
      "count": 8472,
      "type": "SCALAR"
    }
  ],
  "asset": {
    "extras": {
      "author": "₦₥₵ ฿₵ (https://sketchfab.com/oxyplik)",
      "license": "CC-BY-4.0 (http://creativecommons.org/licenses/by/4.0/)",
      "source": "https://sketchfab.com/3d-models/plant-9-2219143c9aef4674ac466cd8847f09e8",
      "title": "Plant  #9"
    },
    "generator": "Sketchfab-15.66.0",
    "version": "2.0"
  },
  "bufferViews": [
    {
      "buffer": 0,
      "byteLength": 117660,
      "name": "floatBufferViews",
      "target": 34963
    },
    {
      "buffer": 0,
      "byteLength": 143392,
      "byteOffset": 117660,
      "byteStride": 8,
      "name": "floatBufferViews",
      "target": 34962
    },
    {
      "buffer": 0,
      "byteLength": 430176,
      "byteOffset": 261052,
      "byteStride": 12,
      "name": "floatBufferViews",
      "target": 34962
    }
  ],
  "buffers": [
    {
      "byteLength": 691228,
      "uri": "scene.bin"
    }
  ],
  "images": [
    {
      "uri": "textures/Material.006_baseColor.png"
    },
    {
      "uri": "textures/Material.004_baseColor.png"
    },
    {
      "uri": "textures/Material.003_baseColor.png"
    },
    {
      "uri": "textures/Material.002_baseColor.png"
    },
    {
      "uri": "textures/Material.001_baseColor.png"
    }
  ],
  "materials": [
    {
      "doubleSided": true,
      "name": "Material.006",
      "pbrMetallicRoughness": {
        "baseColorTexture": {
          "index": 0
        },
        "metallicFactor": 0.0,
        "roughnessFactor": 0.6
      }
    },
    {
      "doubleSided": true,
      "name": "Material.005",
      "pbrMetallicRoughness": {
        "baseColorFactor": [
          0.8,
          0.8,
          0.8,
          1.0
        ],
        "metallicFactor": 0.0,
        "roughnessFactor": 0.6
      }
    },
    {
      "doubleSided": true,
      "name": "Material.004",
      "pbrMetallicRoughness": {
        "baseColorTexture": {
          "index": 1
        },
        "metallicFactor": 0.2502880673983264,
        "roughnessFactor": 0.4
      }
    },
    {
      "doubleSided": true,
      "name": "Material.003",
      "pbrMetallicRoughness": {
        "baseColorTexture": {
          "index": 2
        },
        "metallicFactor": 0.3321432844090998,
        "roughnessFactor": 0.4
      }
    },
    {
      "doubleSided": true,
      "name": "Material.002",
      "pbrMetallicRoughness": {
        "baseColorTexture": {
          "index": 3
        },
        "metallicFactor": 0.14954318492352833,
        "roughnessFactor": 0.6741532707455751
      }
    },
    {
      "doubleSided": true,
      "name": "Material.001",
      "pbrMetallicRoughness": {
        "baseColorTexture": {
          "index": 4
        },
        "metallicFactor": 0.32584672925442487,
        "roughnessFactor": 0.6
      }
    }
  ],
  "meshes": [
    {
      "name": "Material_001-material",
      "primitives": [
        {
          "attributes": {
            "NORMAL": 1,
            "POSITION": 0,
            "TEXCOORD_0": 2
          },
          "indices": 3,
          "material": 5,
          "mode": 4
        }
      ]
    },
    {
      "name": "Material_002-material",
      "primitives": [
        {
          "attributes": {
            "NORMAL": 5,
            "POSITION": 4,
            "TEXCOORD_0": 6
          },
          "indices": 7,
          "material": 4,
          "mode": 4
        }
      ]
    },
    {
      "name": "Material_003-material",
      "primitives": [
        {
          "attributes": {
            "NORMAL": 9,
            "POSITION": 8,
            "TEXCOORD_0": 10
          },
          "indices": 11,
          "material": 3,
          "mode": 4
        }
      ]
    },
    {
      "name": "Material_004-material",
      "primitives": [
        {
          "attributes": {
            "NORMAL": 13,
            "POSITION": 12,
            "TEXCOORD_0": 14
          },
          "indices": 15,
          "material": 2,
          "mode": 4
        }
      ]
    },
    {
      "name": "Material_005-material",
      "primitives": [
        {
          "attributes": {
            "NORMAL": 17,
            "POSITION": 16,
            "TEXCOORD_0": 18
          },
          "indices": 19,
          "material": 1,
          "mode": 4
        }
      ]
    },
    {
      "name": "Material_006-material",
      "primitives": [
        {
          "attributes": {
            "NORMAL": 21,
            "POSITION": 20,
            "TEXCOORD_0": 22
          },
          "indices": 23,
          "material": 0,
          "mode": 4
        }
      ]
    }
  ],
  "nodes": [
    {
      "children": [
        1
      ],
      "matrix": [
        1.0,
        0.0,
        0.0,
        0.0,
        0.0,
        2.220446049250313e-16,
        -1.0,
        0.0,
        0.0,
        1.0,
        2.220446049250313e-16,
        0.0,
        0.0,
        0.0,
        0.0,
        1.0
      ],
      "name": "Sketchfab_model"
    },
    {
      "children": [
        2,
        4,
        6,
        8,
        10,
        12
      ],
      "name": "Collada visual scene group"
    },
    {
      "children": [
        3
      ],
      "matrix": [
        0.875187,
        0.3316178,
        0.0,
        0.0,
        -0.2737952,
        0.722585,
        0.0,
        0.0,
        0.0,
        0.0,
        0.794286,
        0.0,
        0.0,
        0.0,
        0.3982648,
        1.0
      ],
      "name": "prim0.001"
    },
    {
      "mesh": 0,
      "name": "Material_001-material"
    },
    {
      "children": [
        5
      ],
      "matrix": [
        0.875187,
        0.3316178,
        0.0,
        0.0,
        -0.2737952,
        0.722585,
        0.0,
        0.0,
        0.0,
        0.0,
        0.794286,
        0.0,
        0.0,
        0.0,
        0.3982648,
        1.0
      ],
      "name": "prim0.002"
    },
    {
      "mesh": 1,
      "name": "Material_002-material"
    },
    {
      "children": [
        7
      ],
      "matrix": [
        0.875187,
        0.3316178,
        0.0,
        0.0,
        -0.2737952,
        0.722585,
        0.0,
        0.0,
        0.0,
        0.0,
        0.794286,
        0.0,
        0.0,
        0.0,
        0.3982648,
        1.0
      ],
      "name": "prim0.003"
    },
    {
      "mesh": 2,
      "name": "Material_003-material"
    },
    {
      "children": [
        9
      ],
      "matrix": [
        0.875187,
        0.3316178,
        0.0,
        0.0,
        -0.2737952,
        0.722585,
        0.0,
        0.0,
        0.0,
        0.0,
        0.794286,
        0.0,
        0.0,
        0.0,
        0.3982648,
        1.0
      ],
      "name": "prim0.004"
    },
    {
      "mesh": 3,
      "name": "Material_004-material"
    },
    {
      "children": [
        11
      ],
      "matrix": [
        0.875187,
        0.3316178,
        0.0,
        0.0,
        -0.2737952,
        0.722585,
        0.0,
        0.0,
        0.0,
        0.0,
        0.794286,
        0.0,
        0.0,
        0.0,
        0.3982648,
        1.0
      ],
      "name": "prim0.005"
    },
    {
      "mesh": 4,
      "name": "Material_005-material"
    },
    {
      "children": [
        13
      ],
      "matrix": [
        0.875187,
        0.3316178,
        0.0,
        0.0,
        -0.2737952,
        0.722585,
        0.0,
        0.0,
        0.0,
        0.0,
        0.794286,
        0.0,
        0.0,
        0.0,
        0.3982648,
        1.0
      ],
      "name": "prim0.006"
    },
    {
      "mesh": 5,
      "name": "Material_006-material"
    }
  ],
  "samplers": [
    {
      "magFilter": 9729,
      "minFilter": 9987,
      "wrapS": 10497,
      "wrapT": 10497
    }
  ],
  "scene": 0,
  "scenes": [
    {
      "name": "Sketchfab_Scene",
      "nodes": [
        0
      ]
    }
  ],
  "textures": [
    {
      "sampler": 0,
      "source": 0
    },
    {
      "sampler": 0,
      "source": 1
    },
    {
      "sampler": 0,
      "source": 2
    },
    {
      "sampler": 0,
      "source": 3
    },
    {
      "sampler": 0,
      "source": 4
    }
  ]
}
