{
  "accessors": [
    {
      "bufferView": 2,
      "componentType": 5126,
      "count": 21308,
      "max": [
        21.222885131835938,
        23.301660537719727,
        1.273193597793579
      ],
      "min": [
        -12.11347484588623,
        -18.637672424316406,
        -0.08100534975528717
      ],
      "type": "VEC3"
    },
    {
      "bufferView": 2,
      "byteOffset": 255696,
      "componentType": 5126,
      "count": 21308,
      "max": [
        0.9998698234558105,
        0.9998860955238342,
        0.9999972581863403
      ],
      "min": [
        -0.9999353885650635,
        -0.9982820749282837,
        -0.9981773495674133
      ],
      "type": "VEC3"
    },
    {
      "bufferView": 3,
      "componentType": 5126,
      "count": 21308,
      "max": [
        0.9988823533058167,
        1.0,
        0.9992684721946716,
        1.0
      ],
      "min": [
        -0.9952746629714966,
        -0.9999241232872009,
        -0.9999181032180786,
        -1.0
      ],
      "type": "VEC4"
    },
    {
      "bufferView": 1,
      "componentType": 5126,
      "count": 21308,
      "max": [
        0.9982709288597107,
        0.9907225370407104
      ],
      "min": [
        0.00146484375,
        0.00146617426071316
      ],
      "type": "VEC2"
    },
    {
      "bufferView": 0,
      "componentType": 5125,
      "count": 59061,
      "type": "SCALAR"
    }
  ],
  "asset": {
    "extras": {
      "author": "Bau-3d (https://sketchfab.com/Bau-3d)",
      "license": "CC-BY-4.0 (http://creativecommons.org/licenses/by/4.0/)",
      "source": "https://sketchfab.com/3d-models/maple-leaf-1x4k-normals-and-texture-free-cbcf27bc44e84870bd572b7b8b5a1ab5",
      "title": "Maple Leaf 1x4k Normals and Texture free"
    },
    "generator": "Sketchfab-16.12.0",
    "version": "2.0"
  },
  "bufferViews": [
    {
      "buffer": 0,
      "byteLength": 236244,
      "name": "floatBufferViews",
      "target": 34963
    },
    {
      "buffer": 0,
      "byteLength": 170464,
      "byteOffset": 236244,
      "byteStride": 8,
      "name": "floatBufferViews",
      "target": 34962
    },
    {
      "buffer": 0,
      "byteLength": 511392,
      "byteOffset": 406708,
      "byteStride": 12,
      "name": "floatBufferViews",
      "target": 34962
    },
    {
      "buffer": 0,
      "byteLength": 340928,
      "byteOffset": 918100,
      "byteStride": 16,
      "name": "floatBufferViews",
      "target": 34962
    }
  ],
  "buffers": [
    {
      "byteLength": 1259028,
      "uri": "scene.bin"
    }
  ],
  "images": [
    {
      "uri": "textures/ahorn_simple_1x4k_normtex_u1_v1_baseColor.jpeg"
    },
    {
      "uri": "textures/ahorn_simple_1x4k_normtex_u1_v1_normal.jpeg"
    }
  ],
  "materials": [
    {
      "doubleSided": true,
      "name": "ahorn_simple_1x4k_normtex_u1_v1",
      "normalTexture": {
        "index": 1
      },
      "pbrMetallicRoughness": {
        "baseColorTexture": {
          "index": 0
        },
        "metallicFactor": 0.0
      }
    }
  ],
  "meshes": [
    {
      "name": "Object_0",
      "primitives": [
        {
          "attributes": {
            "NORMAL": 1,
            "POSITION": 0,
            "TANGENT": 2,
            "TEXCOORD_0": 3
          },
          "indices": 4,
          "material": 0,
          "mode": 4
        }
      ]
    }
  ],
  "nodes": [
    {
      "children": [
        1
      ],
      "matrix": [
        1.0,
        0.0,
        0.0,
        0.0,
        0.0,
        2.220446049250313e-16,
        -1.0,
        0.0,
        0.0,
        1.0,
        2.220446049250313e-16,
        0.0,
        0.0,
        0.0,
        0.0,
        1.0
      ],
      "name": "Sketchfab_model"
    },
    {
      "children": [
        2
      ],
      "name": "ahorn_simple_1x4k_norm+tex.obj.cleaner.materialmerger.gles"
    },
    {
      "mesh": 0,
      "name": "Object_2"
    }
  ],
  "samplers": [
    {
      "magFilter": 9729,
      "minFilter": 9987,
      "wrapS": 10497,
      "wrapT": 10497
    }
  ],
  "scene": 0,
  "scenes": [
    {
      "name": "Sketchfab_Scene",
      "nodes": [
        0
      ]
    }
  ],
  "textures": [
    {
      "sampler": 0,
      "source": 0
    },
    {
      "sampler": 0,
      "source": 1
    }
  ]
}
