{
  "accessors": [
    {
      "bufferView": 2,
      "componentType": 5126,
      "count": 2900,
      "max": [
        4.759324073791504,
        5.0287089347839355,
        10.970958709716797
      ],
      "min": [
        -5.063203811645508,
        -4.680102825164795,
        0.0
      ],
      "type": "VEC3"
    },
    {
      "bufferView": 2,
      "byteOffset": 34800,
      "componentType": 5126,
      "count": 2900,
      "max": [
        0.9999909400939941,
        0.9998591542243958,
        0.9997873306274414
      ],
      "min": [
        -0.9998324513435364,
        -0.9985975027084351,
        -0.9932889938354492
      ],
      "type": "VEC3"
    },
    {
      "bufferView": 1,
      "componentType": 5126,
      "count": 2900,
      "max": [
        1.0,
        1.0
      ],
      "min": [
        0.0,
        0.0
      ],
      "type": "VEC2"
    },
    {
      "bufferView": 0,
      "componentType": 5125,
      "count": 7713,
      "type": "SCALAR"
    },
    {
      "bufferView": 2,
      "byteOffset": 69600,
      "componentType": 5126,
      "count": 308,
      "max": [
        6.640553951263428,
        8.266824722290039,
        11.66405963897705
      ],
      "min": [
        -7.539918899536133,
        -7.414884090423584,
        1.7338900566101074
      ],
      "type": "VEC3"
    },
    {
      "bufferView": 2,
      "byteOffset": 73296,
      "componentType": 5126,
      "count": 308,
      "max": [
        0.8803451061248779,
        0.9269440174102783,
        0.9936193823814392
      ],
      "min": [
        -0.9948855042457581,
        -0.9585340023040771,
        -0.01063800510019064
      ],
      "type": "VEC3"
    },
    {
      "bufferView": 1,
      "byteOffset": 23200,
      "componentType": 5126,
      "count": 308,
      "max": [
        1.0,
        1.0
      ],
      "min": [
        0.0,
        0.0
      ],
      "type": "VEC2"
    },
    {
      "bufferView": 0,
      "byteOffset": 30852,
      "componentType": 5125,
      "count": 462,
      "type": "SCALAR"
    },
    {
      "bufferView": 2,
      "byteOffset": 76992,
      "componentType": 5126,
      "count": 312,
      "max": [
        6.955680847167969,
        7.710018157958984,
        12.345108985900879
      ],
      "min": [
        -8.088664054870605,
        -6.781768798828125,
        2.9556310176849365
      ],
      "type": "VEC3"
    },
    {
      "bufferView": 2,
      "byteOffset": 80736,
      "componentType": 5126,
      "count": 312,
      "max": [
        0.8485124111175537,
        0.948416531085968,
        0.9940690994262695
      ],
      "min": [
        -0.9722195863723755,
        -0.911562979221344,
        -0.24344097077846527
      ],
      "type": "VEC3"
    },
    {
      "bufferView": 1,
      "byteOffset": 25664,
      "componentType": 5126,
      "count": 312,
      "max": [
        1.0,
        1.0
      ],
      "min": [
        0.0,
        0.0
      ],
      "type": "VEC2"
    },
    {
      "bufferView": 0,
      "byteOffset": 32700,
      "componentType": 5125,
      "count": 468,
      "type": "SCALAR"
    },
    {
      "bufferView": 2,
      "byteOffset": 84480,
      "componentType": 5126,
      "count": 348,
      "max": [
        7.602930068969727,
        7.842361927032471,
        13.038162231445313
      ],
      "min": [
        -7.894360065460205,
        -7.258294105529785,
        2.6138288974761963
      ],
      "type": "VEC3"
    },
    {
      "bufferView": 2,
      "byteOffset": 88656,
      "componentType": 5126,
      "count": 348,
      "max": [
        0.7960841059684753,
        0.7804887294769287,
        0.9993715286254883
      ],
      "min": [
        -0.8219650983810425,
        -0.9225532412528992,
        0.21025796234607697
      ],
      "type": "VEC3"
    },
    {
      "bufferView": 1,
      "byteOffset": 28160,
      "componentType": 5126,
      "count": 348,
      "max": [
        1.0,
        1.0
      ],
      "min": [
        0.0,
        0.0
      ],
      "type": "VEC2"
    },
    {
      "bufferView": 0,
      "byteOffset": 34572,
      "componentType": 5125,
      "count": 522,
      "type": "SCALAR"
    },
    {
      "bufferView": 2,
      "byteOffset": 92832,
      "componentType": 5126,
      "count": 316,
      "max": [
        7.305293083190918,
        7.736384868621826,
        11.435504913330078
      ],
      "min": [
        -7.82989501953125,
        -6.873244762420654,
        2.061845064163208
      ],
      "type": "VEC3"
    },
    {
      "bufferView": 2,
      "byteOffset": 96624,
      "componentType": 5126,
      "count": 316,
      "max": [
        0.8595973253250122,
        0.8935257792472839,
        0.9996924996376038
      ],
      "min": [
        -0.9820848703384399,
        -0.913150429725647,
        0.11142996698617935
      ],
      "type": "VEC3"
    },
    {
      "bufferView": 1,
      "byteOffset": 30944,
      "componentType": 5126,
      "count": 316,
      "max": [
        1.0,
        1.0
      ],
      "min": [
        0.0,
        0.0
      ],
      "type": "VEC2"
    },
    {
      "bufferView": 0,
      "byteOffset": 36660,
      "componentType": 5125,
      "count": 474,
      "type": "SCALAR"
    },
    {
      "bufferView": 2,
      "byteOffset": 100416,
      "componentType": 5126,
      "count": 344,
      "max": [
        7.16830587387085,
        7.839024066925049,
        11.96867561340332
      ],
      "min": [
        -7.8237528800964355,
        -7.310083866119385,
        2.5699961185455322
      ],
      "type": "VEC3"
    },
    {
      "bufferView": 2,
      "byteOffset": 104544,
      "componentType": 5126,
      "count": 344,
      "max": [
        0.928101658821106,
        0.9790511131286621,
        0.9912750124931335
      ],
      "min": [
        -0.999443769454956,
        -0.9851276278495789,
        -0.026059994474053383
      ],
      "type": "VEC3"
    },
    {
      "bufferView": 1,
      "byteOffset": 33472,
      "componentType": 5126,
      "count": 344,
      "max": [
        1.0,
        1.0
      ],
      "min": [
        0.0,
        0.0
      ],
      "type": "VEC2"
    },
    {
      "bufferView": 0,
      "byteOffset": 38556,
      "componentType": 5125,
      "count": 516,
      "type": "SCALAR"
    },
    {
      "bufferView": 2,
      "byteOffset": 108672,
      "componentType": 5126,
      "count": 344,
      "max": [
        6.088619232177734,
        7.8316850662231445,
        12.861348152160645
      ],
      "min": [
        -7.801878929138184,
        -7.052803039550781,
        2.394028902053833
      ],
      "type": "VEC3"
    },
    {
      "bufferView": 2,
      "byteOffset": 112800,
      "componentType": 5126,
      "count": 344,
      "max": [
        0.8780236840248108,
        0.9216514229774475,
        0.9937626719474792
      ],
      "min": [
        -0.9774221181869507,
        -0.952086329460144,
        0.16604700684547424
      ],
      "type": "VEC3"
    },
    {
      "bufferView": 1,
      "byteOffset": 36224,
      "componentType": 5126,
      "count": 344,
      "max": [
        1.0,
        1.0
      ],
      "min": [
        0.0,
        0.0
      ],
      "type": "VEC2"
    },
    {
      "bufferView": 0,
      "byteOffset": 40620,
      "componentType": 5125,
      "count": 516,
      "type": "SCALAR"
    }
  ],
  "asset": {
    "extras": {
      "author": "Sereib (https://sketchfab.com/Sereib)",
      "license": "CC-BY-4.0 (http://creativecommons.org/licenses/by/4.0/)",
      "source": "https://sketchfab.com/3d-models/tree-with-leaves-low-poly-9fdb984f31124de08ee0472ad2e1e2e6",
      "title": "Tree with Leaves (low-Poly)"
    },
    "generator": "Sketchfab-16.12.0",
    "version": "2.0"
  },
  "bufferViews": [
    {
      "buffer": 0,
      "byteLength": 42684,
      "name": "floatBufferViews",
      "target": 34963
    },
    {
      "buffer": 0,
      "byteLength": 38976,
      "byteOffset": 42684,
      "byteStride": 8,
      "name": "floatBufferViews",
      "target": 34962
    },
    {
      "buffer": 0,
      "byteLength": 116928,
      "byteOffset": 81660,
      "byteStride": 12,
      "name": "floatBufferViews",
      "target": 34962
    }
  ],
  "buffers": [
    {
      "byteLength": 198588,
      "uri": "scene.bin"
    }
  ],
  "images": [
    {
      "uri": "textures/nature_bark_linden_05_m_0001.jpg_baseColor.jpeg"
    },
    {
      "uri": "textures/nature_leaves_standard_01_m_0001.jpg_baseColor.png"
    },
    {
      "uri": "textures/nature_leaves_standard_01_m_0002.jpg_baseColor.png"
    },
    {
      "uri": "textures/nature_leaves_standard_01_m_0003.jpg_baseColor.png"
    },
    {
      "uri": "textures/nature_leaves_standard_01_m_0004.jpg_baseColor.png"
    },
    {
      "uri": "textures/nature_leaves_standard_01_m_0005.jpg_baseColor.png"
    },
    {
      "uri": "textures/nature_leaves_standard_01_m_0006.jpg_baseColor.png"
    }
  ],
  "materials": [
    {
      "doubleSided": true,
      "name": "nature_bark_linden_05_m_0001.jpg",
      "pbrMetallicRoughness": {
        "baseColorTexture": {
          "index": 0
        },
        "metallicFactor": 0.0,
        "roughnessFactor": 0.9
      }
    },
    {
      "alphaMode": "BLEND",
      "doubleSided": true,
      "name": "nature_leaves_standard_01_m_0001.jpg",
      "pbrMetallicRoughness": {
        "baseColorTexture": {
          "index": 1
        },
        "metallicFactor": 0.0,
        "roughnessFactor": 0.9
      }
    },
    {
      "alphaMode": "BLEND",
      "doubleSided": true,
      "name": "nature_leaves_standard_01_m_0002.jpg",
      "pbrMetallicRoughness": {
        "baseColorTexture": {
          "index": 2
        },
        "metallicFactor": 0.0,
        "roughnessFactor": 0.9
      }
    },
    {
      "alphaMode": "BLEND",
      "doubleSided": true,
      "name": "nature_leaves_standard_01_m_0003.jpg",
      "pbrMetallicRoughness": {
        "baseColorTexture": {
          "index": 3
        },
        "metallicFactor": 0.0,
        "roughnessFactor": 0.9
      }
    },
    {
      "alphaMode": "BLEND",
      "doubleSided": true,
      "name": "nature_leaves_standard_01_m_0004.jpg",
      "pbrMetallicRoughness": {
        "baseColorTexture": {
          "index": 4
        },
        "metallicFactor": 0.0,
        "roughnessFactor": 0.9
      }
    },
    {
      "alphaMode": "BLEND",
      "doubleSided": true,
      "name": "nature_leaves_standard_01_m_0005.jpg",
      "pbrMetallicRoughness": {
        "baseColorTexture": {
          "index": 5
        },
        "metallicFactor": 0.0,
        "roughnessFactor": 0.9
      }
    },
    {
      "alphaMode": "BLEND",
      "doubleSided": true,
      "name": "nature_leaves_standard_01_m_0006.jpg",
      "pbrMetallicRoughness": {
        "baseColorTexture": {
          "index": 6
        },
        "metallicFactor": 0.0,
        "roughnessFactor": 0.9
      }
    }
  ],
  "meshes": [
    {
      "name": "Object_0",
      "primitives": [
        {
          "attributes": {
            "NORMAL": 1,
            "POSITION": 0,
            "TEXCOORD_0": 2
          },
          "indices": 3,
          "material": 0,
          "mode": 4
        }
      ]
    },
    {
      "name": "Object_1",
      "primitives": [
        {
          "attributes": {
            "NORMAL": 5,
            "POSITION": 4,
            "TEXCOORD_0": 6
          },
          "indices": 7,
          "material": 1,
          "mode": 4
        }
      ]
    },
    {
      "name": "Object_2",
      "primitives": [
        {
          "attributes": {
            "NORMAL": 9,
            "POSITION": 8,
            "TEXCOORD_0": 10
          },
          "indices": 11,
          "material": 2,
          "mode": 4
        }
      ]
    },
    {
      "name": "Object_3",
      "primitives": [
        {
          "attributes": {
            "NORMAL": 13,
            "POSITION": 12,
            "TEXCOORD_0": 14
          },
          "indices": 15,
          "material": 3,
          "mode": 4
        }
      ]
    },
    {
      "name": "Object_4",
      "primitives": [
        {
          "attributes": {
            "NORMAL": 17,
            "POSITION": 16,
            "TEXCOORD_0": 18
          },
          "indices": 19,
          "material": 4,
          "mode": 4
        }
      ]
    },
    {
      "name": "Object_5",
      "primitives": [
        {
          "attributes": {
            "NORMAL": 21,
            "POSITION": 20,
            "TEXCOORD_0": 22
          },
          "indices": 23,
          "material": 5,
          "mode": 4
        }
      ]
    },
    {
      "name": "Object_6",
      "primitives": [
        {
          "attributes": {
            "NORMAL": 25,
            "POSITION": 24,
            "TEXCOORD_0": 26
          },
          "indices": 27,
          "material": 6,
          "mode": 4
        }
      ]
    }
  ],
  "nodes": [
    {
      "children": [
        1
      ],
      "matrix": [
        1.0,
        0.0,
        0.0,
        0.0,
        0.0,
        2.220446049250313e-16,
        -1.0,
        0.0,
        0.0,
        1.0,
        2.220446049250313e-16,
        0.0,
        0.0,
        0.0,
        0.0,
        1.0
      ],
      "name": "Sketchfab_model"
    },
    {
      "children": [
        2,
        3,
        4,
        5,
        6,
        7,
        8
      ],
      "name": "linden.obj.cleaner.materialmerger.gles"
    },
    {
      "mesh": 0,
      "name": "Object_2"
    },
    {
      "mesh": 1,
      "name": "Object_3"
    },
    {
      "mesh": 2,
      "name": "Object_4"
    },
    {
      "mesh": 3,
      "name": "Object_5"
    },
    {
      "mesh": 4,
      "name": "Object_6"
    },
    {
      "mesh": 5,
      "name": "Object_7"
    },
    {
      "mesh": 6,
      "name": "Object_8"
    }
  ],
  "samplers": [
    {
      "magFilter": 9729,
      "minFilter": 9987,
      "wrapS": 10497,
      "wrapT": 10497
    }
  ],
  "scene": 0,
  "scenes": [
    {
      "name": "Sketchfab_Scene",
      "nodes": [
        0
      ]
    }
  ],
  "textures": [
    {
      "sampler": 0,
      "source": 0
    },
    {
      "sampler": 0,
      "source": 1
    },
    {
      "sampler": 0,
      "source": 2
    },
    {
      "sampler": 0,
      "source": 3
    },
    {
      "sampler": 0,
      "source": 4
    },
    {
      "sampler": 0,
      "source": 5
    },
    {
      "sampler": 0,
      "source": 6
    }
  ]
}
