{
  "accessors": [
    {
      "bufferView": 2,
      "componentType": 5126,
      "count": 988,
      "max": [
        8.28557014465332,
        19.47919464111328,
        6.552270412445068
      ],
      "min": [
        -3.5050933361053467,
        -1.0559091567993164,
        -4.677209854125977
      ],
      "type": "VEC3"
    },
    {
      "bufferView": 2,
      "byteOffset": 11856,
      "componentType": 5126,
      "count": 988,
      "max": [
        0.9997071623802185,
        0.9652518630027771,
        0.9999037981033325
      ],
      "min": [
        -0.9994479417800903,
        -0.9210590124130249,
        -0.9976916313171387
      ],
      "type": "VEC3"
    },
    {
      "bufferView": 3,
      "componentType": 5126,
      "count": 988,
      "max": [
        0.9995899200439453,
        0.997116208076477,
        0.9997683763504028,
        1.0
      ],
      "min": [
        -0.9829365611076355,
        -0.9819927215576172,
        -0.9988415837287903,
        -1.0
      ],
      "type": "VEC4"
    },
    {
      "bufferView": 1,
      "componentType": 5126,
      "count": 988,
      "max": [
        0.9144212603569031,
        0.9798229932785034
      ],
      "min": [
        0.06550691276788712,
        0.03239315748214722
      ],
      "type": "VEC2"
    },
    {
      "bufferView": 0,
      "componentType": 5125,
      "count": 4008,
      "type": "SCALAR"
    },
    {
      "bufferView": 2,
      "byteOffset": 23712,
      "componentType": 5126,
      "count": 365,
      "max": [
        0.9807850122451782,
        0.4724038243293762,
        0.9807849526405334
      ],
      "min": [
        -0.9807849526405334,
        -0.44498002529144287,
        -0.9807852506637573
      ],
      "type": "VEC3"
    },
    {
      "bufferView": 2,
      "byteOffset": 28092,
      "componentType": 5126,
      "count": 365,
      "max": [
        0.9262167811393738,
        1.0,
        0.9262163639068604
      ],
      "min": [
        -0.9262162446975708,
        -1.0,
        -0.9262164831161499
      ],
      "type": "VEC3"
    },
    {
      "bufferView": 1,
      "byteOffset": 7904,
      "componentType": 5126,
      "count": 365,
      "max": [
        1.0000001192092896,
        1.0
      ],
      "min": [
        0.0,
        0.21123188734054565
      ],
      "type": "VEC2"
    },
    {
      "bufferView": 1,
      "byteOffset": 10824,
      "componentType": 5126,
      "count": 365,
      "max": [
        1.0000001192092896,
        1.0
      ],
      "min": [
        0.0,
        0.21123188734054565
      ],
      "type": "VEC2"
    },
    {
      "bufferView": 0,
      "byteOffset": 16032,
      "componentType": 5125,
      "count": 1632,
      "type": "SCALAR"
    },
    {
      "bufferView": 2,
      "byteOffset": 32472,
      "componentType": 5126,
      "count": 92,
      "max": [
        2.0365562438964844,
        5.454456806182861,
        9.369424819946289
      ],
      "min": [
        -7.469142436981201,
        0.24163341522216797,
        -2.206955909729004
      ],
      "type": "VEC3"
    },
    {
      "bufferView": 2,
      "byteOffset": 33576,
      "componentType": 5126,
      "count": 92,
      "max": [
        0.8954988718032837,
        0.9645525813102722,
        0.557662308216095
      ],
      "min": [
        -0.9554508924484253,
        -0.9978050589561462,
        -0.7898970246315002
      ],
      "type": "VEC3"
    },
    {
      "bufferView": 1,
      "byteOffset": 13744,
      "componentType": 5126,
      "count": 92,
      "max": [
        0.2799151837825775,
        1.0
      ],
      "min": [
        0.0,
        0.03938168287277222
      ],
      "type": "VEC2"
    },
    {
      "bufferView": 0,
      "byteOffset": 22560,
      "componentType": 5125,
      "count": 264,
      "type": "SCALAR"
    },
    {
      "bufferView": 2,
      "byteOffset": 34680,
      "componentType": 5126,
      "count": 331,
      "max": [
        4.193848133087158,
        -1.1019306182861328,
        4.239421367645264
      ],
      "min": [
        -0.5989245772361755,
        -15.339756965637207,
        -2.2316207885742188
      ],
      "type": "VEC3"
    },
    {
      "bufferView": 2,
      "byteOffset": 38652,
      "componentType": 5126,
      "count": 331,
      "max": [
        0.8733909726142883,
        0.9831476807594299,
        0.9976157546043396
      ],
      "min": [
        -0.7999429702758789,
        -0.9948475956916809,
        -0.9965487122535706
      ],
      "type": "VEC3"
    },
    {
      "bufferView": 1,
      "byteOffset": 14480,
      "componentType": 5126,
      "count": 331,
      "max": [
        0.32401490211486816,
        1.0
      ],
      "min": [
        0.0,
        0.0
      ],
      "type": "VEC2"
    },
    {
      "bufferView": 0,
      "byteOffset": 23616,
      "componentType": 5125,
      "count": 1224,
      "type": "SCALAR"
    },
    {
      "bufferView": 2,
      "byteOffset": 42624,
      "componentType": 5126,
      "count": 365,
      "max": [
        0.9807850122451782,
        0.4724038243293762,
        0.9807849526405334
      ],
      "min": [
        -0.9807849526405334,
        -0.44498002529144287,
        -0.9807852506637573
      ],
      "type": "VEC3"
    },
    {
      "bufferView": 2,
      "byteOffset": 47004,
      "componentType": 5126,
      "count": 365,
      "max": [
        0.9262167811393738,
        1.0,
        0.9262163639068604
      ],
      "min": [
        -0.9262162446975708,
        -1.0,
        -0.9262164831161499
      ],
      "type": "VEC3"
    },
    {
      "bufferView": 1,
      "byteOffset": 17128,
      "componentType": 5126,
      "count": 365,
      "max": [
        1.0000001192092896,
        1.0
      ],
      "min": [
        0.0,
        0.21123188734054565
      ],
      "type": "VEC2"
    },
    {
      "bufferView": 1,
      "byteOffset": 20048,
      "componentType": 5126,
      "count": 365,
      "max": [
        1.0000001192092896,
        1.0
      ],
      "min": [
        0.0,
        0.21123188734054565
      ],
      "type": "VEC2"
    },
    {
      "bufferView": 0,
      "byteOffset": 28512,
      "componentType": 5125,
      "count": 1632,
      "type": "SCALAR"
    },
    {
      "bufferView": 2,
      "byteOffset": 51384,
      "componentType": 5126,
      "count": 365,
      "max": [
        0.9807850122451782,
        0.4724038243293762,
        0.9807849526405334
      ],
      "min": [
        -0.9807849526405334,
        -0.44498002529144287,
        -0.9807852506637573
      ],
      "type": "VEC3"
    },
    {
      "bufferView": 2,
      "byteOffset": 55764,
      "componentType": 5126,
      "count": 365,
      "max": [
        0.9262167811393738,
        1.0,
        0.9262163639068604
      ],
      "min": [
        -0.9262162446975708,
        -1.0,
        -0.9262164831161499
      ],
      "type": "VEC3"
    },
    {
      "bufferView": 1,
      "byteOffset": 22968,
      "componentType": 5126,
      "count": 365,
      "max": [
        1.0000001192092896,
        1.0
      ],
      "min": [
        0.0,
        0.21123188734054565
      ],
      "type": "VEC2"
    },
    {
      "bufferView": 1,
      "byteOffset": 25888,
      "componentType": 5126,
      "count": 365,
      "max": [
        1.0000001192092896,
        1.0
      ],
      "min": [
        0.0,
        0.21123188734054565
      ],
      "type": "VEC2"
    },
    {
      "bufferView": 0,
      "byteOffset": 35040,
      "componentType": 5125,
      "count": 1632,
      "type": "SCALAR"
    }
  ],
  "asset": {
    "extras": {
      "author": "lord_DMI (https://sketchfab.com/lord_DMI)",
      "license": "CC-BY-4.0 (http://creativecommons.org/licenses/by/4.0/)",
      "source": "https://sketchfab.com/3d-models/stylized-tree-mushroom-ab75f2e77f6d45979cd355bd328be546",
      "title": "stylized tree mushroom"
    },
    "generator": "Sketchfab-16.12.0",
    "version": "2.0"
  },
  "bufferViews": [
    {
      "buffer": 0,
      "byteLength": 41568,
      "name": "floatBufferViews",
      "target": 34963
    },
    {
      "buffer": 0,
      "byteLength": 28808,
      "byteOffset": 41568,
      "byteStride": 8,
      "name": "floatBufferViews",
      "target": 34962
    },
    {
      "buffer": 0,
      "byteLength": 60144,
      "byteOffset": 70376,
      "byteStride": 12,
      "name": "floatBufferViews",
      "target": 34962
    },
    {
      "buffer": 0,
      "byteLength": 15808,
      "byteOffset": 130520,
      "byteStride": 16,
      "name": "floatBufferViews",
      "target": 34962
    }
  ],
  "buffers": [
    {
      "byteLength": 146328,
      "uri": "scene.bin"
    }
  ],
  "extensionsUsed": [
    "KHR_materials_emissive_strength"
  ],
  "images": [
    {
      "uri": "textures/Material.001_baseColor.png"
    },
    {
      "uri": "textures/Material.001_normal.png"
    },
    {
      "uri": "textures/Material.002_baseColor.png"
    },
    {
      "uri": "textures/Material.002_emissive.png"
    },
    {
      "uri": "textures/bandage_baseColor.png"
    }
  ],
  "materials": [
    {
      "doubleSided": true,
      "name": "Material.001",
      "normalTexture": {
        "index": 1
      },
      "pbrMetallicRoughness": {
        "baseColorTexture": {
          "index": 0
        },
        "metallicFactor": 0.577665433546319,
        "roughnessFactor": 0.7542588849739857
      }
    },
    {
      "doubleSided": true,
      "emissiveFactor": [
        1.0,
        1.0,
        1.0
      ],
      "emissiveTexture": {
        "index": 3
      },
      "extensions": {
        "KHR_materials_emissive_strength": {
          "emissiveStrength": 1.3
        }
      },
      "name": "Material.002",
      "pbrMetallicRoughness": {
        "baseColorTexture": {
          "index": 2
        },
        "metallicFactor": 0.0,
        "roughnessFactor": 0.5
      }
    },
    {
      "doubleSided": true,
      "name": "bandage",
      "pbrMetallicRoughness": {
        "baseColorTexture": {
          "index": 4
        },
        "metallicFactor": 0.0,
        "roughnessFactor": 0.5
      }
    }
  ],
  "meshes": [
    {
      "name": "Object_0",
      "primitives": [
        {
          "attributes": {
            "NORMAL": 1,
            "POSITION": 0,
            "TANGENT": 2,
            "TEXCOORD_0": 3
          },
          "indices": 4,
          "material": 0,
          "mode": 4
        }
      ]
    },
    {
      "name": "Object_1",
      "primitives": [
        {
          "attributes": {
            "NORMAL": 6,
            "POSITION": 5,
            "TEXCOORD_0": 7,
            "TEXCOORD_1": 8
          },
          "indices": 9,
          "material": 1,
          "mode": 4
        }
      ]
    },
    {
      "name": "Object_2",
      "primitives": [
        {
          "attributes": {
            "NORMAL": 11,
            "POSITION": 10,
            "TEXCOORD_0": 12
          },
          "indices": 13,
          "material": 2,
          "mode": 4
        }
      ]
    },
    {
      "name": "Object_3",
      "primitives": [
        {
          "attributes": {
            "NORMAL": 15,
            "POSITION": 14,
            "TEXCOORD_0": 16
          },
          "indices": 17,
          "material": 2,
          "mode": 4
        }
      ]
    },
    {
      "name": "Object_4",
      "primitives": [
        {
          "attributes": {
            "NORMAL": 19,
            "POSITION": 18,
            "TEXCOORD_0": 20,
            "TEXCOORD_1": 21
          },
          "indices": 22,
          "material": 1,
          "mode": 4
        }
      ]
    },
    {
      "name": "Object_5",
      "primitives": [
        {
          "attributes": {
            "NORMAL": 24,
            "POSITION": 23,
            "TEXCOORD_0": 25,
            "TEXCOORD_1": 26
          },
          "indices": 27,
          "material": 1,
          "mode": 4
        }
      ]
    }
  ],
  "nodes": [
    {
      "children": [
        1
      ],
      "matrix": [
        1.0,
        0.0,
        0.0,
        0.0,
        0.0,
        2.220446049250313e-16,
        -1.0,
        0.0,
        0.0,
        1.0,
        2.220446049250313e-16,
        0.0,
        0.0,
        0.0,
        0.0,
        1.0
      ],
      "name": "Sketchfab_model"
    },
    {
      "children": [
        2
      ],
      "name": "root"
    },
    {
      "children": [
        3,
        5,
        7,
        9,
        11,
        13
      ],
      "matrix": [
        1.0,
        0.0,
        0.0,
        0.0,
        0.0,
        2.220446049250313e-16,
        1.0,
        0.0,
        0.0,
        -1.0,
        2.220446049250313e-16,
        0.0,
        0.0,
        0.0,
        0.0,
        1.0
      ],
      "name": "GLTF_SceneRootNode"
    },
    {
      "children": [
        4
      ],
      "matrix": [
        1.0,
        0.0,
        0.0,
        0.0,
        0.0,
        1.0,
        0.0,
        0.0,
        0.0,
        0.0,
        1.0,
        0.0,
        0.0057010650634765625,
        1.0712950229644775,
        0.0,
        1.0
      ],
      "name": "low_0"
    },
    {
      "mesh": 0,
      "name": "Object_4"
    },
    {
      "children": [
        6
      ],
      "matrix": [
        3.6642725467681885,
        0.0,
        0.0,
        0.0,
        0.0,
        3.6642725467681885,
        0.0,
        0.0,
        0.0,
        0.0,
        3.6642725467681885,
        0.0,
        -1.539266586303711,
        14.76191234588623,
        -4.600423336029053,
        1.0
      ],
      "name": "Sphere.001_1"
    },
    {
      "mesh": 1,
      "name": "Object_6"
    },
    {
      "children": [
        8
      ],
      "matrix": [
        -0.38567964667877563,
        0.42131517069339885,
        0.5551368930973605,
        0.0,
        -0.6968139619614028,
        -0.22260076539909138,
        -0.31516889861763747,
        0.0,
        -0.011564842838729949,
        -0.6382591802101104,
        0.47636529700168107,
        0.0,
        -0.0036647929809987545,
        11.618124008178711,
        -2.275585889816284,
        1.0
      ],
      "name": "Plane_2"
    },
    {
      "mesh": 2,
      "name": "Object_8"
    },
    {
      "children": [
        10
      ],
      "matrix": [
        1.0,
        0.0,
        0.0,
        0.0,
        0.0,
        1.0,
        0.0,
        0.0,
        0.0,
        0.0,
        1.0,
        0.0,
        0.0,
        18.07392120361328,
        0.0,
        1.0
      ],
      "name": "Plane.001_3"
    },
    {
      "mesh": 3,
      "name": "Object_10"
    },
    {
      "children": [
        12
      ],
      "matrix": [
        6.522265434265137,
        0.0,
        0.0,
        0.0,
        0.0,
        6.522265434265137,
        0.0,
        0.0,
        0.0,
        0.0,
        6.522265434265137,
        0.0,
        7.947964668273926,
        21.203927993774414,
        -0.12787151336669922,
        1.0
      ],
      "name": "Sphere.002_4"
    },
    {
      "mesh": 4,
      "name": "Object_12"
    },
    {
      "children": [
        14
      ],
      "matrix": [
        4.570518970489502,
        0.0,
        0.0,
        0.0,
        0.0,
        4.570518970489502,
        0.0,
        0.0,
        0.0,
        0.0,
        4.570518970489502,
        0.0,
        -1.4922069311141968,
        18.675094604492188,
        6.060364246368408,
        1.0
      ],
      "name": "Sphere.003_5"
    },
    {
      "mesh": 5,
      "name": "Object_14"
    }
  ],
  "samplers": [
    {
      "magFilter": 9729,
      "minFilter": 9987,
      "wrapS": 10497,
      "wrapT": 10497
    }
  ],
  "scene": 0,
  "scenes": [
    {
      "name": "Sketchfab_Scene",
      "nodes": [
        0
      ]
    }
  ],
  "textures": [
    {
      "sampler": 0,
      "source": 0
    },
    {
      "sampler": 0,
      "source": 1
    },
    {
      "sampler": 0,
      "source": 2
    },
    {
      "sampler": 0,
      "source": 3
    },
    {
      "sampler": 0,
      "source": 4
    }
  ]
}
